<svg width="24" height="27" viewBox="0 0 24 27" fill="none" xmlns="http://www.w3.org/2000/svg">
<g id="Vector">
<path fill-rule="evenodd" clip-rule="evenodd" d="M2.66667 5.4C2.66667 5.3068 2.67133 5.21471 2.68043 5.12394C2.81699 3.76245 3.95262 2.7 5.33333 2.7H18.6667C20.1394 2.7 21.3333 3.90883 21.3333 5.4V24.3C21.3333 25.7912 20.1394 27 18.6667 27H5.33333C3.86057 27 2.66667 25.7912 2.66667 24.3V5.4ZM5.33333 9.68162V5.4H18.6667V9.68162L16.2288 12.15H7.77124L5.33333 9.68162ZM18.6667 13.5V24.3H5.33333V13.5L6.66667 14.85H17.3333L18.6667 13.5Z" fill="black"/>
<path d="M6.66667 1.35C6.66667 0.604416 7.26362 0 8 0C8.73638 0 9.33333 0.604416 9.33333 1.35V4.05C9.33333 4.79558 8.73638 5.4 8 5.4C7.26362 5.4 6.66667 4.79558 6.66667 4.05V1.35Z" fill="black"/>
<path d="M0 14.85C0 14.1044 0.596954 13.5 1.33333 13.5H4C4.73638 13.5 5.33333 14.1044 5.33333 14.85V22.95C5.33333 23.6956 4.73638 24.3 4 24.3H1.33333C0.596954 24.3 0 23.6956 0 22.95V14.85Z" fill="black"/>
<path d="M20 13.5C19.2636 13.5 18.6667 14.1044 18.6667 14.85V22.95C18.6667 23.6956 19.2636 24.3 20 24.3H22.6667C23.403 24.3 24 23.6956 24 22.95V14.85C24 14.1044 23.403 13.5 22.6667 13.5H20Z" fill="black"/>
<path d="M16 0C15.2636 0 14.6667 0.604416 14.6667 1.35V4.05C14.6667 4.79558 15.2636 5.4 16 5.4C16.7364 5.4 17.3333 4.79558 17.3333 4.05V1.35C17.3333 0.604416 16.7364 0 16 0Z" fill="black"/>
<path d="M12 13.5C11.2636 13.5 10.6667 14.1044 10.6667 14.85V16.2C10.6667 16.9456 11.2636 17.55 12 17.55C12.7364 17.55 13.3333 16.9456 13.3333 16.2V14.85C13.3333 14.1044 12.7364 13.5 12 13.5Z" fill="black"/>
</g>
</svg>
