<svg width="16" height="16" viewBox="0 0 16 16" fill="none" xmlns="http://www.w3.org/2000/svg">
<mask id="mask0_8084_2180" style="mask-type:alpha" maskUnits="userSpaceOnUse" x="0" y="0" width="16" height="16">
<rect width="16" height="16" fill="#D9D9D9"/>
</mask>
<g mask="url(#mask0_8084_2180)">
<path d="M10.3337 15.3332C9.1781 15.3332 8.15866 14.9887 7.27533 14.2998C6.39199 13.6109 5.80588 12.7332 5.51699 11.6665C6.01699 11.6887 6.51144 11.6387 7.00033 11.5165C7.48921 11.3943 7.95588 11.2221 8.40033 10.9998H11.1337C11.1448 10.8776 11.1531 10.7582 11.1587 10.6415C11.1642 10.5248 11.167 10.4054 11.167 10.2832C11.167 10.1832 11.1642 10.0804 11.1587 9.97484C11.1531 9.86928 11.1448 9.7665 11.1337 9.6665H10.1503C10.3281 9.4665 10.492 9.25539 10.642 9.03317C10.792 8.81095 10.9281 8.57762 11.0503 8.33317H13.4003C13.1781 7.99984 12.9114 7.70817 12.6003 7.45817C12.2892 7.20817 11.9392 7.0165 11.5503 6.88317C11.6059 6.66095 11.642 6.43317 11.6587 6.19984C11.6753 5.9665 11.6781 5.73873 11.667 5.5165C12.7337 5.80539 13.6114 6.3915 14.3003 7.27484C14.9892 8.15817 15.3337 9.17762 15.3337 10.3332C15.3337 11.7221 14.8475 12.9026 13.8753 13.8748C12.9031 14.8471 11.7225 15.3332 10.3337 15.3332ZM8.75033 13.6332C8.67255 13.4109 8.6031 13.1943 8.54199 12.9832C8.48088 12.7721 8.4281 12.5554 8.38366 12.3332H7.26699C7.45588 12.6109 7.67533 12.8609 7.92533 13.0832C8.17533 13.3054 8.45033 13.4887 8.75033 13.6332ZM10.3337 13.8665C10.467 13.6221 10.5809 13.3721 10.6753 13.1165C10.7698 12.8609 10.8503 12.5998 10.917 12.3332H9.75033C9.81699 12.5998 9.90033 12.8609 10.0003 13.1165C10.1003 13.3721 10.2114 13.6221 10.3337 13.8665ZM11.917 13.6332C12.217 13.4887 12.492 13.3054 12.742 13.0832C12.992 12.8609 13.2114 12.6109 13.4003 12.3332H12.2837C12.2281 12.5554 12.1725 12.7721 12.117 12.9832C12.0614 13.1943 11.9948 13.4109 11.917 13.6332ZM12.467 10.9998H13.9337C13.9559 10.8887 13.9725 10.7804 13.9837 10.6748C13.9948 10.5693 14.0003 10.4554 14.0003 10.3332C14.0003 10.2109 13.9948 10.0971 13.9837 9.9915C13.9725 9.88595 13.9559 9.77762 13.9337 9.6665H12.467C12.4781 9.7665 12.4864 9.86928 12.492 9.97484C12.4975 10.0804 12.5003 10.1832 12.5003 10.2832C12.5003 10.4054 12.4975 10.5248 12.492 10.6415C12.4864 10.7582 12.4781 10.8776 12.467 10.9998ZM5.66699 10.6665C4.2781 10.6665 3.09755 10.1804 2.12533 9.20817C1.1531 8.23595 0.666992 7.05539 0.666992 5.6665C0.666992 4.27762 1.1531 3.09706 2.12533 2.12484C3.09755 1.15262 4.2781 0.666504 5.66699 0.666504C7.05588 0.666504 8.23644 1.15262 9.20866 2.12484C10.1809 3.09706 10.667 4.27762 10.667 5.6665C10.667 7.05539 10.1809 8.23595 9.20866 9.20817C8.23644 10.1804 7.05588 10.6665 5.66699 10.6665ZM5.66699 9.33317C6.6781 9.33317 7.54199 8.97484 8.25866 8.25817C8.97533 7.5415 9.33366 6.67762 9.33366 5.6665C9.33366 4.65539 8.97533 3.7915 8.25866 3.07484C7.54199 2.35817 6.6781 1.99984 5.66699 1.99984C4.65588 1.99984 3.79199 2.35817 3.07533 3.07484C2.35866 3.7915 2.00033 4.65539 2.00033 5.6665C2.00033 6.67762 2.35866 7.5415 3.07533 8.25817C3.79199 8.97484 4.65588 9.33317 5.66699 9.33317ZM4.00033 5.33317C4.18921 5.33317 4.34755 5.26928 4.47533 5.1415C4.6031 5.01373 4.66699 4.85539 4.66699 4.6665C4.66699 4.47762 4.6031 4.31928 4.47533 4.1915C4.34755 4.06373 4.18921 3.99984 4.00033 3.99984C3.81144 3.99984 3.6531 4.06373 3.52533 4.1915C3.39755 4.31928 3.33366 4.47762 3.33366 4.6665C3.33366 4.85539 3.39755 5.01373 3.52533 5.1415C3.6531 5.26928 3.81144 5.33317 4.00033 5.33317ZM5.66699 8.2665C6.20033 8.2665 6.67533 8.1165 7.09199 7.8165C7.50866 7.5165 7.81144 7.13317 8.00033 6.6665H3.33366C3.52255 7.13317 3.82533 7.5165 4.24199 7.8165C4.65866 8.1165 5.13366 8.2665 5.66699 8.2665ZM7.33366 5.33317C7.52255 5.33317 7.68088 5.26928 7.80866 5.1415C7.93644 5.01373 8.00033 4.85539 8.00033 4.6665C8.00033 4.47762 7.93644 4.31928 7.80866 4.1915C7.68088 4.06373 7.52255 3.99984 7.33366 3.99984C7.14477 3.99984 6.98644 4.06373 6.85866 4.1915C6.73088 4.31928 6.66699 4.47762 6.66699 4.6665C6.66699 4.85539 6.73088 5.01373 6.85866 5.1415C6.98644 5.26928 7.14477 5.33317 7.33366 5.33317Z" fill="white"/>
</g>
</svg>
