<svg width="14" height="14" viewBox="0 0 14 14" fill="none" xmlns="http://www.w3.org/2000/svg">
<path d="M6.50587 10.377H7.59353V6.33313H6.50587V10.377ZM6.99975 5.15958C7.17254 5.15958 7.31736 5.10274 7.43422 4.98906C7.55106 4.87537 7.60948 4.7345 7.60948 4.56646C7.60948 4.38597 7.55107 4.23644 7.43425 4.11788C7.31744 3.9993 7.17269 3.94001 7 3.94001C6.82431 3.94001 6.67871 3.9993 6.5632 4.11788C6.44768 4.23644 6.38992 4.3853 6.38992 4.56446C6.38992 4.73417 6.44836 4.87579 6.56525 4.98931C6.68213 5.10282 6.82696 5.15958 6.99975 5.15958ZM7.00468 13.7661C6.0691 13.7661 5.1911 13.589 4.37067 13.2348C3.55023 12.8806 2.83268 12.3961 2.21802 11.7815C1.60335 11.1668 1.11891 10.449 0.764698 9.62813C0.410498 8.80724 0.233398 7.92853 0.233398 6.99201C0.233398 6.05549 0.410498 5.1766 0.764698 4.35534C1.11891 3.53408 1.60314 2.81881 2.21738 2.20956C2.83164 1.60031 3.54931 1.11799 4.3704 0.762593C5.1915 0.407193 6.07042 0.229492 7.00715 0.229492C7.94389 0.229492 8.82305 0.407092 9.64463 0.762293C10.4662 1.11748 11.1815 1.59953 11.7906 2.20843C12.3996 2.81733 12.8818 3.53334 13.2371 4.35648C13.5924 5.17962 13.77 6.05925 13.77 6.99536C13.77 7.9313 13.5923 8.80947 13.2369 9.62986C12.8815 10.4502 12.3992 11.1666 11.7899 11.7789C11.1807 12.3912 10.4647 12.8755 9.64205 13.2317C8.81938 13.588 7.94026 13.7661 7.00468 13.7661ZM7.00803 12.6306C8.56962 12.6306 9.8971 12.082 10.9905 10.9847C12.0838 9.88748 12.6305 8.55639 12.6305 6.99146C12.6305 5.42987 12.0849 4.10239 10.9936 3.00903C9.9023 1.91567 8.57034 1.36899 6.9977 1.36899C5.44033 1.36899 4.11286 1.91463 3.01528 3.00591C1.91769 4.09719 1.3689 5.42915 1.3689 7.00179C1.3689 8.55916 1.91752 9.88663 3.01477 10.9842C4.11201 12.0818 5.4431 12.6306 7.00803 12.6306Z" fill="#FF4C00"/>
</svg>
