<svg width="33" height="32" viewBox="0 0 33 32" fill="none" xmlns="http://www.w3.org/2000/svg">
<g id="Match" clip-path="url(#clip0_3970_2062)">
<g id="Union">
<path d="M22.6046 14.5176C22.2996 14.8041 21.9292 14.9474 21.4935 14.9474C21.0577 14.9474 20.6874 14.8041 20.3824 14.5176C20.0773 14.231 19.9248 13.8831 19.9248 13.4737C19.9248 13.0643 20.0773 12.7164 20.3824 12.4298C20.6874 12.1433 21.0577 12 21.4935 12C21.9292 12 22.2996 12.1433 22.6046 12.4298C22.9096 12.7164 23.0621 13.0643 23.0621 13.4737C23.0621 13.8831 22.9096 14.231 22.6046 14.5176Z" fill="#1D1D1D"/>
<path d="M15.2843 14.5176C14.9793 14.8041 14.6089 14.9474 14.1732 14.9474C13.7375 14.9474 13.3671 14.8041 13.0621 14.5176C12.7571 14.231 12.6046 13.8831 12.6046 13.4737C12.6046 13.0643 12.7571 12.7164 13.0621 12.4298C13.3671 12.1433 13.7375 12 14.1732 12C14.6089 12 14.9793 12.1433 15.2843 12.4298C15.5893 12.7164 15.7418 13.0643 15.7418 13.4737C15.7418 13.8831 15.5893 14.231 15.2843 14.5176Z" fill="#1D1D1D"/>
<path d="M21.0621 20.3877C20.0948 21.0182 19.0185 21.3334 17.8333 21.3334C16.6481 21.3334 15.5719 21.0182 14.6046 20.3877C14.0084 19.9992 13.5132 19.5345 13.119 18.9936C12.7656 18.5089 13.1641 17.8948 13.764 17.8948C14.0513 17.8948 14.3137 18.046 14.4926 18.2708C14.8359 18.7023 15.2566 19.0559 15.7549 19.3316C16.3911 19.6836 17.0839 19.8597 17.8333 19.8597C18.5828 19.8597 19.2756 19.6836 19.9118 19.3316C20.41 19.0559 20.8308 18.7023 21.174 18.2708C21.3529 18.046 21.6153 17.8948 21.9027 17.8948C22.5026 17.8948 22.901 18.5089 22.5477 18.9936C22.1534 19.5345 21.6582 19.9992 21.0621 20.3877Z" fill="#1D1D1D"/>
<path fill-rule="evenodd" clip-rule="evenodd" d="M29.5587 23.2887L31.1667 14.0273L26.536 5.88308L17.8333 2.66669L9.13062 5.88308L4.5 14.0273V29.3334H22.464L29.5587 23.2887ZM17.8333 5.50965L10.9678 8.04705L7.29103 14.5136L8.57077 21.8834L14.1847 26.6667H21.482L27.0959 21.8834L28.3756 14.5137L24.6989 8.04705L17.8333 5.50965Z" fill="#1D1D1D"/>
</g>
</g>
<defs>
<clipPath id="clip0_3970_2062">
<rect width="32" height="32" fill="white" transform="translate(0.5)"/>
</clipPath>
</defs>
</svg>
