<svg width="33" height="32" viewBox="0 0 33 32" fill="none" xmlns="http://www.w3.org/2000/svg">
<g id="Message" clip-path="url(#clip0_3970_2195)">
<path id="Vector" d="M11 16C11.3778 16 11.6944 15.8722 11.95 15.6167C12.2056 15.3611 12.3333 15.0444 12.3333 14.6667C12.3333 14.2889 12.2056 13.9722 11.95 13.7167C11.6944 13.4611 11.3778 13.3333 11 13.3333C10.6222 13.3333 10.3056 13.4611 10.05 13.7167C9.79444 13.9722 9.66667 14.2889 9.66667 14.6667C9.66667 15.0444 9.79444 15.3611 10.05 15.6167C10.3056 15.8722 10.6222 16 11 16ZM16.3333 16C16.7111 16 17.0278 15.8722 17.2833 15.6167C17.5389 15.3611 17.6667 15.0444 17.6667 14.6667C17.6667 14.2889 17.5389 13.9722 17.2833 13.7167C17.0278 13.4611 16.7111 13.3333 16.3333 13.3333C15.9556 13.3333 15.6389 13.4611 15.3833 13.7167C15.1278 13.9722 15 14.2889 15 14.6667C15 15.0444 15.1278 15.3611 15.3833 15.6167C15.6389 15.8722 15.9556 16 16.3333 16ZM21.6667 16C22.0444 16 22.3611 15.8722 22.6167 15.6167C22.8722 15.3611 23 15.0444 23 14.6667C23 14.2889 22.8722 13.9722 22.6167 13.7167C22.3611 13.4611 22.0444 13.3333 21.6667 13.3333C21.2889 13.3333 20.9722 13.4611 20.7167 13.7167C20.4611 13.9722 20.3333 14.2889 20.3333 14.6667C20.3333 15.0444 20.4611 15.3611 20.7167 15.6167C20.9722 15.8722 21.2889 16 21.6667 16ZM3 28V4H29.6667V24H8.33333L3 28ZM7.2 21.3333H27V6.66667H5.66667V22.8333L7.2 21.3333Z" fill="#2D2C2B"/>
</g>
<defs>
<clipPath id="clip0_3970_2195">
<rect width="32" height="32" fill="white" transform="translate(0.333008)"/>
</clipPath>
</defs>
</svg>
